<svg id="visual" viewBox="0 0 900 600" width="900" height="600" xmlns="http://www.w3.org/2000/svg" xmlns:xlink="http://www.w3.org/1999/xlink" version="1.1"><rect x="0" y="0" width="900" height="600" fill="#031416"></rect><path d="M0 252L56 252L56 221L113 221L113 303L169 303L169 204L225 204L225 215L281 215L281 319L338 319L338 224L394 224L394 335L450 335L450 239L506 239L506 238L563 238L563 298L619 298L619 255L675 255L675 278L731 278L731 251L788 251L788 197L844 197L844 230L900 230L900 261L900 601L900 601L844 601L844 601L788 601L788 601L731 601L731 601L675 601L675 601L619 601L619 601L563 601L563 601L506 601L506 601L450 601L450 601L394 601L394 601L338 601L338 601L281 601L281 601L225 601L225 601L169 601L169 601L113 601L113 601L56 601L56 601L0 601Z" fill="#2b515b"></path><path d="M0 308L56 308L56 349L113 349L113 367L169 367L169 339L225 339L225 377L281 377L281 370L338 370L338 415L394 415L394 356L450 356L450 293L506 293L506 401L563 401L563 321L619 321L619 337L675 337L675 295L731 295L731 388L788 388L788 326L844 326L844 397L900 397L900 363L900 601L900 601L844 601L844 601L788 601L788 601L731 601L731 601L675 601L675 601L619 601L619 601L563 601L563 601L506 601L506 601L450 601L450 601L394 601L394 601L338 601L338 601L281 601L281 601L225 601L225 601L169 601L169 601L113 601L113 601L56 601L56 601L0 601Z" fill="#224851"></path><path d="M0 409L56 409L56 420L113 420L113 454L169 454L169 390L225 390L225 371L281 371L281 451L338 451L338 471L394 471L394 406L450 406L450 404L506 404L506 420L563 420L563 438L619 438L619 481L675 481L675 429L731 429L731 439L788 439L788 389L844 389L844 460L900 460L900 458L900 601L900 601L844 601L844 601L788 601L788 601L731 601L731 601L675 601L675 601L619 601L619 601L563 601L563 601L506 601L506 601L450 601L450 601L394 601L394 601L338 601L338 601L281 601L281 601L225 601L225 601L169 601L169 601L113 601L113 601L56 601L56 601L0 601Z" fill="#1a4047"></path><path d="M0 528L56 528L56 515L113 515L113 483L169 483L169 493L225 493L225 512L281 512L281 517L338 517L338 505L394 505L394 509L450 509L450 482L506 482L506 501L563 501L563 496L619 496L619 505L675 505L675 458L731 458L731 458L788 458L788 463L844 463L844 511L900 511L900 548L900 601L900 601L844 601L844 601L788 601L788 601L731 601L731 601L675 601L675 601L619 601L619 601L563 601L563 601L506 601L506 601L450 601L450 601L394 601L394 601L338 601L338 601L281 601L281 601L225 601L225 601L169 601L169 601L113 601L113 601L56 601L56 601L0 601Z" fill="#12383d"></path></svg>