<svg id="visual" viewBox="0 0 900 600" width="900" height="600" xmlns="http://www.w3.org/2000/svg" xmlns:xlink="http://www.w3.org/1999/xlink" version="1.1"><path d="M0 97L100 97L100 55L200 55L200 37L300 37L300 43L400 43L400 115L500 115L500 115L600 115L600 145L700 145L700 97L800 97L800 127L900 127L900 97L900 0L900 0L800 0L800 0L700 0L700 0L600 0L600 0L500 0L500 0L400 0L400 0L300 0L300 0L200 0L200 0L100 0L100 0L0 0Z" fill="#28767a"></path><path d="M0 145L100 145L100 85L200 85L200 67L300 67L300 55L400 55L400 193L500 193L500 181L600 181L600 145L700 145L700 157L800 157L800 145L900 145L900 127L900 95L900 125L800 125L800 95L700 95L700 143L600 143L600 113L500 113L500 113L400 113L400 41L300 41L300 35L200 35L200 53L100 53L100 95L0 95Z" fill="#27696d"></path><path d="M0 169L100 169L100 115L200 115L200 91L300 91L300 157L400 157L400 229L500 229L500 253L600 253L600 175L700 175L700 169L800 169L800 163L900 163L900 181L900 125L900 143L800 143L800 155L700 155L700 143L600 143L600 179L500 179L500 191L400 191L400 53L300 53L300 65L200 65L200 83L100 83L100 143L0 143Z" fill="#255d60"></path><path d="M0 403L100 403L100 427L200 427L200 253L300 253L300 247L400 247L400 265L500 265L500 295L600 295L600 415L700 415L700 325L800 325L800 187L900 187L900 361L900 179L900 161L800 161L800 167L700 167L700 173L600 173L600 251L500 251L500 227L400 227L400 155L300 155L300 89L200 89L200 113L100 113L100 167L0 167Z" fill="#235153"></path><path d="M0 463L100 463L100 451L200 451L200 313L300 313L300 283L400 283L400 325L500 325L500 397L600 397L600 481L700 481L700 463L800 463L800 217L900 217L900 391L900 359L900 185L800 185L800 323L700 323L700 413L600 413L600 293L500 293L500 263L400 263L400 245L300 245L300 251L200 251L200 425L100 425L100 401L0 401Z" fill="#204547"></path><path d="M0 511L100 511L100 535L200 535L200 565L300 565L300 529L400 529L400 523L500 523L500 559L600 559L600 529L700 529L700 517L800 517L800 475L900 475L900 505L900 389L900 215L800 215L800 461L700 461L700 479L600 479L600 395L500 395L500 323L400 323L400 281L300 281L300 311L200 311L200 449L100 449L100 461L0 461Z" fill="#1d393b"></path><path d="M0 601L100 601L100 601L200 601L200 601L300 601L300 601L400 601L400 601L500 601L500 601L600 601L600 601L700 601L700 601L800 601L800 601L900 601L900 601L900 503L900 473L800 473L800 515L700 515L700 527L600 527L600 557L500 557L500 521L400 521L400 527L300 527L300 563L200 563L200 533L100 533L100 509L0 509Z" fill="#1a2e2f"></path></svg>