<svg id="visual" viewBox="0 0 900 600" width="900" height="600" xmlns="http://www.w3.org/2000/svg" xmlns:xlink="http://www.w3.org/1999/xlink" version="1.1"><rect x="0" y="0" width="900" height="600" fill="#162A26"></rect><path d="M0 389L150 342L300 368L450 315L600 334L750 333L900 343L900 601L750 601L600 601L450 601L300 601L150 601L0 601Z" fill="#1a3736"></path><path d="M0 329L150 379L300 424L450 381L600 394L750 387L900 375L900 601L750 601L600 601L450 601L300 601L150 601L0 601Z" fill="#183231"></path><path d="M0 451L150 381L300 364L450 406L600 374L750 446L900 433L900 601L750 601L600 601L450 601L300 601L150 601L0 601Z" fill="#152d2d"></path><path d="M0 461L150 450L300 477L450 427L600 462L750 488L900 462L900 601L750 601L600 601L450 601L300 601L150 601L0 601Z" fill="#132828"></path><path d="M0 473L150 470L300 510L450 469L600 460L750 514L900 518L900 601L750 601L600 601L450 601L300 601L150 601L0 601Z" fill="#112323"></path><path d="M0 538L150 494L300 528L450 486L600 516L750 534L900 496L900 601L750 601L600 601L450 601L300 601L150 601L0 601Z" fill="#0f1e1f"></path><path d="M0 562L150 551L300 578L450 569L600 538L750 567L900 576L900 601L750 601L600 601L450 601L300 601L150 601L0 601Z" fill="#0c191a"></path></svg>