<svg id="visual" viewBox="0 0 900 600" width="900" height="600" xmlns="http://www.w3.org/2000/svg" xmlns:xlink="http://www.w3.org/1999/xlink" version="1.1"><rect x="0" y="0" width="900" height="600" fill="#031416"></rect><path d="M0 412L56 412L56 363L113 363L113 360L169 360L169 386L225 386L225 414L281 414L281 356L338 356L338 425L394 425L394 434L450 434L450 375L506 375L506 393L563 393L563 399L619 399L619 419L675 419L675 409L731 409L731 430L788 430L788 386L844 386L844 437L900 437L900 357L900 601L900 601L844 601L844 601L788 601L788 601L731 601L731 601L675 601L675 601L619 601L619 601L563 601L563 601L506 601L506 601L450 601L450 601L394 601L394 601L338 601L338 601L281 601L281 601L225 601L225 601L169 601L169 601L113 601L113 601L56 601L56 601L0 601Z" fill="#2b515b"></path><path d="M0 437L56 437L56 462L113 462L113 461L169 461L169 440L225 440L225 457L281 457L281 450L338 450L338 435L394 435L394 450L450 450L450 457L506 457L506 432L563 432L563 445L619 445L619 448L675 448L675 453L731 453L731 429L788 429L788 427L844 427L844 473L900 473L900 483L900 601L900 601L844 601L844 601L788 601L788 601L731 601L731 601L675 601L675 601L619 601L619 601L563 601L563 601L506 601L506 601L450 601L450 601L394 601L394 601L338 601L338 601L281 601L281 601L225 601L225 601L169 601L169 601L113 601L113 601L56 601L56 601L0 601Z" fill="#275862"></path><path d="M0 488L56 488L56 504L113 504L113 511L169 511L169 513L225 513L225 488L281 488L281 470L338 470L338 521L394 521L394 495L450 495L450 493L506 493L506 511L563 511L563 492L619 492L619 521L675 521L675 458L731 458L731 515L788 515L788 497L844 497L844 516L900 516L900 485L900 601L900 601L844 601L844 601L788 601L788 601L731 601L731 601L675 601L675 601L619 601L619 601L563 601L563 601L506 601L506 601L450 601L450 601L394 601L394 601L338 601L338 601L281 601L281 601L225 601L225 601L169 601L169 601L113 601L113 601L56 601L56 601L0 601Z" fill="#205f69"></path><path d="M0 538L56 538L56 563L113 563L113 542L169 542L169 542L225 542L225 513L281 513L281 541L338 541L338 525L394 525L394 524L450 524L450 567L506 567L506 529L563 529L563 561L619 561L619 516L675 516L675 537L731 537L731 546L788 546L788 537L844 537L844 534L900 534L900 510L900 601L900 601L844 601L844 601L788 601L788 601L731 601L731 601L675 601L675 601L619 601L619 601L563 601L563 601L506 601L506 601L450 601L450 601L394 601L394 601L338 601L338 601L281 601L281 601L225 601L225 601L169 601L169 601L113 601L113 601L56 601L56 601L0 601Z" fill="#176670"></path></svg>